<?xml version="1.0" encoding="utf-8"?>
<!-- Generator: Adobe Illustrator 16.0.0, SVG Export Plug-In . SVG Version: 6.00 Build 0)  -->
<!DOCTYPE svg PUBLIC "-//W3C//DTD SVG 1.1//EN" "http://www.w3.org/Graphics/SVG/1.1/DTD/svg11.dtd">
<svg version="1.1" id="Ebene_1" xmlns="http://www.w3.org/2000/svg" xmlns:xlink="http://www.w3.org/1999/xlink" x="0px" y="0px"
	 width="100px" height="100px" viewBox="0 0 100 100" enable-background="new 0 0 100 100" xml:space="preserve">
<g>
	<path d="M67.646,41.896v-6.623h-5.668v2.266l-5.506-4.234c-0.561-0.428-1.338-0.428-1.898,0L33.393,49.598
		c-0.379,0.289-0.529,0.787-0.379,1.238c0.156,0.451,0.578,0.756,1.057,0.756h2.682v25.625h35.631V51.756l1.91-0.164h2.818
		c0.453,0,0.863-0.291,1.01-0.725c0.148-0.436,0.002-0.914-0.361-1.191L67.646,41.896z M49.781,62.684h-6.715v-9.102h6.715V62.684z"
		/>
	<polygon points="21.611,74.359 24.893,74.359 24.893,72.471 21.611,72.471 21.611,69 24.893,69 24.893,67.113 21.611,67.113 
		21.611,63.645 24.893,63.645 24.893,61.754 21.611,61.754 21.611,58.287 24.893,58.287 24.893,56.395 21.611,56.395 21.611,52.928 
		24.893,52.928 24.893,51.039 21.611,51.039 21.611,47.572 24.893,47.572 24.893,45.682 21.611,45.682 21.611,42.213 24.893,42.213 
		24.893,40.322 21.611,40.322 21.611,36.855 24.893,36.855 24.893,34.965 21.611,34.965 21.611,33.031 26.262,33.031 26.262,31.238 
		19.822,31.238 19.822,78.111 26.455,78.111 26.455,76.322 21.611,76.322 	"/>
	<polygon points="33.309,21.889 33.309,28.523 35.098,28.523 35.098,23.68 37.059,23.68 37.059,26.959 38.951,26.959 38.951,23.68 
		42.414,23.68 42.414,26.959 44.307,26.959 44.307,23.68 47.773,23.68 47.773,26.959 49.666,26.959 49.666,23.68 53.131,23.68 
		53.131,26.959 55.023,26.959 55.023,23.68 58.488,23.68 58.488,26.959 60.377,26.959 60.377,23.68 63.848,23.68 63.848,26.959 
		65.736,26.959 65.736,23.68 69.207,23.68 69.207,26.959 71.096,26.959 71.096,23.68 74.564,23.68 74.564,26.959 76.453,26.959 
		76.453,23.68 78.387,23.68 78.387,28.328 80.178,28.328 80.178,21.889 	"/>
</g>
</svg>
