<?xml version="1.0" encoding="utf-8"?>
<!-- Generator: Adobe Illustrator 16.0.0, SVG Export Plug-In . SVG Version: 6.00 Build 0)  -->
<!DOCTYPE svg PUBLIC "-//W3C//DTD SVG 1.1//EN" "http://www.w3.org/Graphics/SVG/1.1/DTD/svg11.dtd">
<svg version="1.1" id="Ebene_1" xmlns="http://www.w3.org/2000/svg" xmlns:xlink="http://www.w3.org/1999/xlink" x="0px" y="0px"
	 width="100px" height="100px" viewBox="0 0 100 100" enable-background="new 0 0 100 100" xml:space="preserve">
<g>
	<path d="M24.523,49.607V36.084c0-1.648,0-3.07,0.536-3.994c0.345-0.592,1.114-1.379,3.828-1.379c1.15,0,1.582,1.166,1.729,1.746
		c-0.608,0.441-0.964,1.135-0.827,1.852l4.215-0.799c-0.141-0.742-0.759-1.279-1.518-1.447c-0.317-1.336-1.341-3.258-3.6-3.258
		c-2.817,0-4.559,0.738-5.477,2.328c-0.795,1.367-0.795,3.107-0.795,5.068v13.406h-1.665v1.906h58.098v-1.906H24.523z"/>
	<path d="M20.951,58.695c0,3.662,2.408,6.76,5.709,7.877l-4.229,4.623h4.639l4.156-4.152h29.473l4.155,4.152h4.637l-3.795-4.152
		h5.007c4.595,0,8.347-3.76,8.347-8.348v-5.273H20.951V58.695z"/>
	<path d="M29.576,34.447c-0.049,0.072-0.067,0.16-0.054,0.244c0.035,0.182,0.207,0.297,0.385,0.262l4.332-0.82
		c0.082-0.016,0.159-0.066,0.208-0.137c0.052-0.072,0.068-0.16,0.052-0.246c-0.035-0.178-0.206-0.295-0.385-0.262l-4.329,0.822
		C29.698,34.326,29.624,34.375,29.576,34.447z"/>
	<path d="M32.516,35.164c-0.035-0.201-0.233-0.334-0.435-0.299c-0.202,0.041-0.335,0.236-0.3,0.438
		c0.037,0.203,0.236,0.336,0.44,0.297C32.423,35.563,32.553,35.367,32.516,35.164z"/>
	<path d="M32.445,36.793c0.201-0.037,0.337-0.232,0.294-0.434c-0.035-0.203-0.229-0.336-0.433-0.297
		c-0.204,0.037-0.335,0.232-0.298,0.434C32.051,36.701,32.243,36.834,32.445,36.793z"/>
	<path d="M32.673,37.986c0.201-0.035,0.335-0.232,0.294-0.434c-0.037-0.203-0.231-0.334-0.433-0.297
		c-0.204,0.037-0.339,0.232-0.298,0.438C32.273,37.895,32.468,38.027,32.673,37.986z"/>
	<path d="M32.9,39.182c0.201-0.037,0.331-0.232,0.294-0.434c-0.037-0.203-0.236-0.336-0.433-0.299
		c-0.204,0.039-0.335,0.234-0.296,0.438C32.501,39.088,32.7,39.221,32.9,39.182z"/>
	<circle cx="33.055" cy="40.011" r="0.373"/>
	<circle cx="30.98" cy="35.456" r="0.372"/>
	<path d="M30.896,36.295c-0.205-0.02-0.387,0.129-0.405,0.334c-0.025,0.207,0.128,0.387,0.335,0.406
		c0.2,0.021,0.383-0.127,0.401-0.332C31.25,36.5,31.099,36.314,30.896,36.295z"/>
	<circle cx="30.739" cy="37.875" r="0.373"/>
	<path d="M30.654,38.713c-0.203-0.02-0.383,0.131-0.407,0.336c-0.019,0.205,0.13,0.387,0.335,0.406
		c0.2,0.02,0.389-0.129,0.405-0.332C31.008,38.918,30.856,38.734,30.654,38.713z"/>
	<path d="M30.538,39.924c-0.207-0.02-0.389,0.129-0.409,0.336c-0.019,0.203,0.13,0.385,0.333,0.406
		c0.207,0.021,0.385-0.129,0.407-0.334C30.888,40.129,30.739,39.943,30.538,39.924z"/>
	<path d="M33.829,34.811c-0.097-0.184-0.316-0.256-0.505-0.164c-0.18,0.094-0.254,0.318-0.159,0.504
		c0.096,0.182,0.318,0.252,0.503,0.16C33.85,35.215,33.916,34.994,33.829,34.811z"/>
	<path d="M34.218,36.391c0.183-0.092,0.259-0.316,0.166-0.5c-0.098-0.184-0.32-0.256-0.505-0.16c-0.182,0.092-0.252,0.318-0.157,0.5
		C33.814,36.414,34.038,36.486,34.218,36.391z"/>
	<path d="M34.276,37.313c0.093,0.184,0.316,0.254,0.498,0.162c0.187-0.094,0.252-0.318,0.163-0.502
		c-0.093-0.184-0.32-0.256-0.502-0.164C34.253,36.904,34.181,37.131,34.276,37.313z"/>
	<path d="M34.83,38.395c0.094,0.184,0.316,0.254,0.495,0.16c0.184-0.092,0.262-0.316,0.165-0.5
		c-0.093-0.184-0.316-0.256-0.499-0.162C34.808,37.986,34.737,38.211,34.83,38.395z"/>
	<path d="M35.387,39.479c0.093,0.182,0.316,0.252,0.496,0.158c0.185-0.094,0.259-0.316,0.162-0.502
		c-0.094-0.182-0.317-0.252-0.499-0.162C35.362,39.066,35.29,39.293,35.387,39.479z"/>
</g>
</svg>
