<?xml version="1.0" encoding="utf-8"?>
<!-- Generator: Adobe Illustrator 16.0.0, SVG Export Plug-In . SVG Version: 6.00 Build 0)  -->
<!DOCTYPE svg PUBLIC "-//W3C//DTD SVG 1.1//EN" "http://www.w3.org/Graphics/SVG/1.1/DTD/svg11.dtd">
<svg version="1.1" id="Ebene_1" xmlns="http://www.w3.org/2000/svg" xmlns:xlink="http://www.w3.org/1999/xlink" x="0px" y="0px"
	 width="100px" height="100px" viewBox="0 0 100 100" enable-background="new 0 0 100 100" xml:space="preserve">
<g>
	<path d="M78.583,72.519h1.196c1.812,0,3.28-1.467,3.28-3.276c0-1.566-1.103-2.873-2.573-3.195l7.15-8.487
		c0.559-0.665,0.829-1.523,0.755-2.391c-0.072-0.864-0.488-1.665-1.154-2.225c-1.386-1.166-3.451-0.989-4.616,0.396L71.989,65.966
		H35.571l-11.883,4.789c-1.243,0.497-2.055,1.701-2.055,3.037c0,0.975,0.482,1.885,1.293,2.431c0.805,0.546,1.828,0.651,2.732,0.289
		l9.912-3.993h5.988l-5.137,5.615H11.597v1.852h76.524v-1.852h-4.403L78.583,72.519z M40.94,78.134l5.62-5.615h27.04l5.615,5.615
		H40.94z"/>
	<path d="M53.208,28.689c1.002-1.005,1.167-2.473,0.364-3.28c-0.807-0.805-2.277-0.643-3.286,0.365
		c-1.004,1.006-1.167,2.474-0.362,3.279C50.732,29.86,52.199,29.695,53.208,28.689z"/>
	<path d="M56.388,40.118c1.425,0,2.577-0.922,2.577-2.063c0-1.137-1.152-2.06-2.577-2.06c-1.428,0-2.527,0.923-2.527,2.06
		C53.86,39.196,54.96,40.118,56.388,40.118z"/>
	<ellipse cx="40.92" cy="22.592" rx="2.063" ry="2.578"/>
	<path d="M50.05,47.188c-0.801,0.806-0.637,2.275,0.37,3.282c1.005,1.003,2.476,1.17,3.278,0.364
		c0.805-0.806,0.642-2.273-0.363-3.281C52.325,46.547,50.858,46.383,50.05,47.188z"/>
	<ellipse cx="40.921" cy="53.522" rx="2.061" ry="2.577"/>
	<path d="M40.92,46.305c4.573,0,8.249-3.673,8.249-8.249c0-4.571-3.676-8.246-8.249-8.246c-4.571,0-8.247,3.675-8.247,8.246
		C32.673,42.632,36.349,46.305,40.92,46.305z"/>
	<path d="M25.456,40.118c1.426,0,2.526-0.922,2.526-2.063c0-1.137-1.101-2.06-2.526-2.06c-1.425,0-2.576,0.923-2.576,2.06
		C22.88,39.196,24.031,40.118,25.456,40.118z"/>
	<path d="M28.64,47.683c-1.01,1.006-1.17,2.475-0.363,3.281c0.802,0.804,2.271,0.641,3.277-0.365
		c1.006-1.007,1.171-2.475,0.367-3.281C31.114,46.512,29.644,46.676,28.64,47.683z"/>
	<ellipse transform="matrix(0.7073 0.7069 -0.7069 0.7073 28.1122 -13.1759)" cx="29.967" cy="27.359" rx="2.578" ry="2.061"/>
</g>
</svg>
