<?xml version="1.0" encoding="utf-8"?>
<!-- Generator: Adobe Illustrator 16.0.0, SVG Export Plug-In . SVG Version: 6.00 Build 0)  -->
<!DOCTYPE svg PUBLIC "-//W3C//DTD SVG 1.1//EN" "http://www.w3.org/Graphics/SVG/1.1/DTD/svg11.dtd">
<svg version="1.1" id="Ebene_1" xmlns="http://www.w3.org/2000/svg" xmlns:xlink="http://www.w3.org/1999/xlink" x="0px" y="0px"
	 width="100px" height="100px" viewBox="0 0 100 100" enable-background="new 0 0 100 100" xml:space="preserve">
<g>
	<path d="M82.795,54.188v-1.072c0-4.511-3.689-8.2-8.199-8.2h-1.801v-4.079c0-3.917-2.799-7.104-6.238-7.104H33.76
		c-3.439,0-6.238,3.187-6.238,7.104v4.079h-2.119c-4.51,0-8.197,3.689-8.197,8.2v1.072H82.795z M29.066,40.837
		c0-3.064,2.105-5.558,4.693-5.558h32.797c2.588,0,4.693,2.493,4.693,5.558v4.079h-3.211c-0.451-1.917-3.391-3.403-6.992-3.403
		s-6.543,1.486-6.994,3.403h-8.668c-0.449-1.917-3.393-3.403-6.994-3.403c-3.6,0-6.543,1.486-6.992,3.403h-2.332V40.837z"/>
	<polygon points="17.205,56.063 17.205,62.045 20.549,62.045 20.549,66.267 24.654,66.267 24.654,62.045 75.172,62.045 
		75.172,66.267 79.277,66.267 79.277,62.045 82.795,62.045 82.795,56.063 	"/>
</g>
</svg>
